<svg width="430" height="233" viewBox="0 0 430 233" fill="none" xmlns="http://www.w3.org/2000/svg">
<g clip-path="url(#clip0_25_97)">
<rect width="430" height="233" fill="#1D1933"/>
<path d="M430 -17.7312V-19.1717L397.578 -16.0342L396.299 -24.8914L411.214 -26.3126L411.181 -26.6666H399.818L394.665 -26.1757L396.15 -15.8958L391.503 -15.4458L380.94 -18.9044L385.579 -26.6666H383.909L379.544 -19.3616L374.232 -21.101L377.565 -26.6666H375.895L372.835 -21.5582L367.714 -23.2352L369.741 -26.6666H368.077L366.319 -23.6917L357.234 -26.6666H352.332L341.65 -17.355L336.733 -23.2309L340.794 -26.6666H338.575L335.814 -24.3303L333.859 -26.6666H331.99L334.719 -23.4044L288.152 15.9973L280.732 8.39344L312.87 -19.6347L317.162 -14.1085L330.366 -26.6666H328.286L317.322 -16.2384L313.952 -20.5785L320.932 -26.6666H318.752L313.071 -21.7123L310.669 -24.804L312.692 -26.6666H310.576L308.729 -24.9653L311.989 -20.7685L300.301 -10.5753V-26.6666H298.868V-22.363L265.431 -7.24065L260.736 -21.7668L271.16 -26.6666H263.915L264.028 -26.4817L240.642 -15.4895L234.65 -26.6666H226.495L188.055 -8.40882L182.81 -15.3003L195.972 -24.7044L200.802 -19.3781L211.974 -26.6666H209.351L201.043 -21.2465L196.177 -26.6122L181.942 -16.4412L174.159 -26.6666H171.872L144.939 0.464956L139.562 -3.95473L161.82 -26.6666H159.813L138.45 -4.86848L132.915 -9.4186L148.587 -26.6666H146.65L131.222 -9.68735H114.482L126.3 -21.6729L91.322 -20.6925L94.1306 -26.6666H92.5468L88.8653 -18.8356L74.1564 -10.1482L60.372 -26.6666H58.5051L72.9058 -9.41L61.3546 -2.58733L43.2595 -26.6666H41.4656L50.0943 -15.1849L37.2094 -6.87945L22.4467 -26.6666H20.6579L36.0018 -6.10043L22.9978 2.28171L1.69062 -26.6666H0V-26.5448L8.34487 -15.2078L0 -10.1668V-8.49195L9.19842 -14.0483L14.9131 -6.2839L0 2.51606V4.18016L15.7674 -5.12361L19.9335 0.53648L0 12.3645V14.0329L20.7839 1.69175L26.7496 9.79668L0 25.7346V27.403L27.6031 10.9562L31.3442 16.0381L0 36.3807V38.0893L32.7366 16.8429L37.605 14.2243L30.854 33.6015L11.5462 42.0044L26.3339 55.0091L26.2952 55.4749L0 66.5417V69.6513L26.0265 58.6985L25.2245 68.3333L0 78.9257V80.4801L25.0898 69.9444L22.9885 95.1811L10.9793 88.0625L0 90.2354V94.6192L10.2018 92.6004L21.3352 99.1995L0 121.899V123.993L22.5987 99.9484L33.6783 106.516L0 143.9V147.124L19.9169 166.329L13.4698 173.598L23.1311 183.677L0 206.123V208.12L8.86231 199.52L22.7549 220.094L13.3271 226.813L0 221.688V223.224L11.9275 227.81L0 236.31V239.83L15.136 229.044L20.9589 231.283L0 246.653V250.208L24.1467 232.5L54.3241 243.889L46.8048 260H48.3872L55.6944 244.342L68.9663 247.963L69.6428 248.233L69.6737 248.156L79.5995 250.864L79.8432 250.957L79.8525 250.933L113.082 260H118.527L93.3746 253.137L97.3012 241.38L141.226 254.242L140.3 260H143.203L148.506 227.026L170.21 229.611L168.465 260H169.901L171.635 229.781L190.502 232.027V260H191.935V232.198L210.864 234.452L211.344 260H212.778L212.3 234.624L219.731 235.509V256.476H230.575V260H232.009V255.042H221.164V246.753L271.431 238.535L272.503 249.938L263.966 251.894L265.232 260H266.683L265.588 252.993L272.639 251.378L273.449 260H274.889L272.849 238.303L302.928 233.385L304.414 248.574L324.647 246.915L326.127 260H327.57L325.916 245.373L305.703 247.03L304.346 233.153L315.635 231.308L351.385 249.467L347.011 260H348.563L353.218 248.79L318.029 230.916L323.435 230.032L365.238 249.584V256.432L366.951 256.787L382.471 260H403.677L369.538 252.931V246.848L353.75 239.464L356.895 231.587L407.692 260H410.628L400.661 254.425L415.714 218.922L428.79 226.29L414.355 260H415.915L421.415 247.156L430 251.918V250.279L421.981 245.832L430 227.105V225.328L387.361 201.299L395.812 183.338L372.793 171.069L375.675 165.055L399.056 176.678L430 222.786V220.214L400.14 175.722L400.034 175.563L375.011 163.124L371.527 170.394L315.747 140.663L325.929 127.795L430 183.376V181.751L408.656 170.352L416.847 156.954L423.057 160.3L418.282 168.689L430 174.856V173.235L420.261 168.111L424.319 160.98L430 164.042V162.415L417.595 155.729L425.322 143.091L430 145.755V144.105L415.435 135.813L426.848 118.419L415.395 112.029L428.955 92.1073L430 92.647V91.033L418.248 84.9614L427.804 48.8694L430 48.4616V44.0885L420.504 45.8501L403.663 29.9157L410.047 24.0641L430 41.8424V39.9225L411.109 23.0909L430 5.77259V3.82828L407.05 24.8675L397.214 15.5099L413.042 -3.13916L430 -7.57533V-10.538L426.857 -9.71601H398.721L392.23 -7.53305L390.682 -11.5041L391.895 -14.044L430 -17.7312ZM380.186 -17.6431L390.424 -14.2912L382.73 1.82734L365.922 6.22409L380.186 -17.6431ZM290.309 105.832L316.582 87.7407L324.515 93.7248L300.696 110.066L290.309 105.832ZM299.281 111.037L298.541 111.544L292.146 108.129L299.281 111.037ZM352.465 210.172L346.44 207.227L356.845 185.748L362.612 188.998L352.465 210.172ZM363.863 189.703L370.657 193.531L362.037 214.849L353.753 210.801L363.863 189.703ZM345.152 206.598L333.113 200.715L343.56 178.261L355.594 185.043L345.152 206.598ZM67.8325 163.649L71.9813 166.288L66.5992 175.466L62.6202 172.364L67.8325 163.649ZM60.3427 170.587L55.3711 166.71L45.6947 173.382L41.5846 167.681L54.7935 154.796L65.4367 162.069L60.3427 170.587ZM73.0298 12.9493L76.0355 11.2902L82.0089 10.762L91.9799 27.8309L79.2598 33.1844L68.3371 15.4318L73.0406 12.9636L73.0298 12.9493ZM290.54 199.251L279.81 193.914L286.48 179.522L297.171 184.747L290.54 199.251ZM298.46 185.376L308.256 190.163L298.306 213.532L287.829 208.631L298.46 185.376ZM277.923 194.576L289.944 200.556L286.531 208.024L266.399 198.608L272.618 186.341L260.465 179.627L264.425 168.744L285.192 178.892L277.923 194.576ZM258.7 180.289L270.714 186.927L265.1 198.001L240.276 186.39L249.218 161.313L263.13 168.111L258.7 180.289ZM238.972 185.78L223.185 178.396L232.992 153.384L247.922 160.68L238.972 185.78ZM223.335 166.234L205.367 139.407L207.74 127.992L235.019 106.021L242.54 117.327L242.496 117.363L223.335 166.234ZM211.139 204.575L159.782 189.487L164.562 179.637L172.031 176.116L172.559 176.495L193.923 169.457L220.02 181.663L211.139 204.575ZM216.478 194.767L255.508 205.96L253.598 217.05L212.518 204.981L216.478 194.767ZM146.543 166.192C128.233 157.019 100.677 143.085 98.6815 141.724C98.6041 141.623 98.4987 141.542 98.3719 141.493C98.1275 141.398 97.7505 141.417 97.4911 141.786C97.4646 141.825 97.433 141.873 97.3922 141.939C97.3248 142.048 97.2331 142.203 97.1113 142.413C96.8927 142.79 96.5781 143.345 96.1767 144.063C95.5016 145.268 94.5692 146.952 93.4061 149.067C91.9011 151.803 90.3896 154.568 89.7418 155.755L83.3111 152.632L96.7544 129.704L115.742 126.632C127.548 134.407 140.137 142.913 142.757 145.011C142.817 146.559 142.768 150.524 142.674 153.908L142.643 155.05L169.363 174.204L162.425 177.476L160.89 180.637L144.881 172.41L147.121 166.482L146.543 166.192ZM75.1268 166.591L82.5837 153.872L102 163.3L95.5095 179.56L75.1268 166.591ZM94.9691 180.915L81.6807 214.208L69.7475 210.672L80.0445 185.952L68.8796 177.245L74.4015 167.828L94.9691 180.915ZM68.6954 122.273L54.5384 113.882L60.104 79.8172L75.8176 114.202L66.969 118.286L68.6954 122.273ZM62.6381 43.2901L75.7818 37.7582L79.3551 45.6021L66.5941 50.9606L62.6381 43.2901ZM65.269 51.5174L42.2533 61.1824L43.5404 51.3275L61.313 43.8477L65.269 51.5174ZM203.303 16.8838L213.604 12.1703L223.693 28.8443L218.837 41.7514L198.431 41.2146L193.699 31.2745L204.798 20.1948L203.303 16.8838ZM222.256 78.3574L117.172 122.424L116.709 122.12L113.496 122.64L108.736 113.24L158.354 91.4989L153.849 82.9756L213.747 57.4163L221.012 70.1157L219.254 71.4709L222.256 78.3574ZM149.723 111.883L172.436 102.359L186.699 114.103L164.465 123.374L149.723 111.883ZM162.946 124.008L136.227 135.149C134.834 134.201 133.299 133.164 131.631 132.041C127.211 129.069 122.769 126.122 120.052 124.325L148.206 112.519L162.946 124.008ZM209.119 106.307L212.012 111.051L220.371 105.648L225.287 110.159L233.498 103.735L234.222 104.822L206.64 127.037L206.44 127.197L204.131 138.307L178.461 119.091L209.119 106.307ZM225.361 108.282L220.523 103.842L212.47 109.049L210.032 105.05L207.221 99.8731L224.265 89.8541L232.702 102.538L225.361 108.282ZM205.301 99.3392L208.402 105.052L188.196 113.478L173.929 101.731L219.464 82.6366L223.47 88.6587L205.301 99.3392ZM96.2455 80.455L110.238 74.3017L121.033 95.4212L103.5 102.902L97.4746 91.0058L100.205 89.695L96.2455 80.455ZM166.901 48.1957L156.173 53.0948L150.246 41.1638L161.272 36.1177L161.254 36.213L166.901 48.1957ZM127.661 55.6426L131.007 62.0374L118.891 67.3651L115.642 61.1172L127.661 55.6426ZM114.98 59.8437L114.032 58.0212L126.105 52.6706L126.995 54.3712L114.98 59.8437ZM138.965 61.6698L143.295 69.9946L116.048 82.519L111.552 73.7241L138.965 61.6698ZM143.958 71.2681L146.593 76.3349L159.508 70.5399L162.94 77.5382L122.354 94.8572L116.701 83.7969L143.958 71.2681ZM160.185 68.6651L147.24 74.4737L140.214 60.9653L140.24 60.8714L158.785 61.5744L158.873 61.75L159.195 61.5902L173.469 62.1306L177.751 71.2179L164.26 76.9749L160.185 68.6651ZM168.816 48.8966L181.383 43.1568L191.866 65.195L179.071 70.6553L168.816 48.8966ZM172.781 60.6707L159.691 60.1741L156.812 54.3791L167.512 49.4922L172.781 60.6707ZM158.059 60.1124L140.617 59.4517L144.814 43.6492L148.941 41.76L158.059 60.1124ZM142.658 40.6012L139.48 34.4636L144.979 31.86L142.658 40.6012ZM142.11 42.6616L137.751 59.0718L132.322 61.4591L122.42 42.5398L138.184 35.0771L142.11 42.6616ZM125.439 51.3985L113.369 56.747L109.228 48.7862L121.124 43.1539L125.439 51.3985ZM117.576 67.9427L95.5246 77.64L87.1431 59.2417L107.932 49.3997L117.576 67.9427ZM152.526 83.5403L156.366 90.8051L108.088 111.96L104.149 104.184L152.526 83.5403ZM213.489 55.968L193.186 64.6318L182.592 42.3613L187.84 37.1225L193.714 48.8321L216.024 49.2284L213.489 55.968ZM194.607 47.4145L188.908 36.0561L192.623 32.348L197.515 42.6243L218.303 43.1712L216.56 47.8044L194.607 47.4145ZM181.312 41.6131L168.205 47.6002L162.749 36.0224L162.868 35.3874L201.999 17.4801L203.083 19.8809L181.312 41.6131ZM161.597 34.3927L145.291 41.8546L148.131 31.1634L163.571 23.905L161.597 34.3927ZM145.461 30.0461L86.549 57.9366L83.3477 50.909L138.889 25.5003L145.467 30.0232L145.461 30.0461ZM114.252 35.1946L107.918 24.2339L111.131 22.8816L118.08 28L119.757 27.2031L122.166 31.574L114.252 35.1946ZM112.942 35.7938L103.993 39.8881L97.8745 28.4608L106.586 24.7944L112.942 35.7938ZM102.687 40.4851L96.8475 43.1568L90.8985 31.3963L96.5472 29.0191L102.687 40.4851ZM95.5432 43.7538L89.8937 46.3381L83.744 34.4077L89.5741 31.9539L95.5432 43.7538ZM88.5887 46.9351L82.7535 49.6047L77.1033 37.202L82.4189 34.9653L88.5887 46.9351ZM65.7743 38.8597L61.4793 31.4852L73.4842 26.5323L77.9232 33.747L65.7743 38.8597ZM79.9492 46.9071L94.2123 78.2169L92.4916 78.9737L96.4885 88.2997L79.8432 96.2891L86.2982 109.365L77.1191 113.602L60.7318 77.7425L76.8102 70.7657L67.2535 52.2384L79.9492 46.9071ZM90.1718 110.734L83.6967 97.6192L96.1817 91.6264L112.011 122.88L75.7574 128.745L73.8468 125.327L72.8979 124.764L70.7121 119.715L90.1718 110.734ZM93.0829 130.298L80.7691 151.3L76.6196 148.955L87.2084 131.248L93.0829 130.298ZM219.282 176.571L194.199 164.839L173.289 171.727L147.001 152.884C147.022 152.002 147.049 150.714 147.067 149.396C147.132 144.392 146.998 143.855 146.909 143.5C146.702 142.669 146.143 142.179 144.821 141.178C144.043 140.588 142.921 139.779 141.484 138.772C140.392 138.006 139.107 137.117 137.64 136.113L164.244 125.019L221.881 169.943L219.282 176.571ZM165.763 124.386L176.925 119.731L204.076 140.057L222.698 167.859L222.426 168.551L165.763 124.386ZM220.81 82.0718L224.151 80.6715L230.573 93.034L240.965 100.206L238.621 108.847L220.81 82.0718ZM225.54 78.7164L241.4 62.4115L249.379 69.1912L246.519 79.7312L228.088 85.1413L225.477 80.1153L226.045 79.8767L225.54 78.7164ZM224.921 77.2974L222.775 72.3761L250.446 51.0559L224.921 77.2974ZM231.68 92.0572L228.761 86.4378L246.079 81.3545L241.363 98.7394L231.68 92.0572ZM247.692 80.8807L269.125 74.5898L270.8 81.3322L245.792 87.8854L247.692 80.8807ZM248.132 79.2575L251 68.6881L242.402 61.3817L258.427 44.9062L261.219 42.7555L268.78 73.1973L248.132 79.2575ZM222.158 69.2327L214.842 56.4438L225.279 28.6973V28.6966L234.706 3.48643L237.469 19.3341L257.778 22.7641L258.936 26.0055L260.6 39.6136L222.158 69.2327ZM224.333 27.1336L214.169 10.3349L202.713 15.5773L198.963 7.26971L232.607 -8.54498L234.219 0.695007L224.333 27.1336ZM201.409 16.1743L163.193 33.6624L165.172 23.1532L197.665 7.8796L201.409 16.1743ZM176.714 14.5604L170.051 3.31514L177.183 -0.0718269L183.956 11.1562L176.714 14.5604ZM175.41 15.1731L169.711 17.852L162.915 6.70498L168.751 3.93291L175.41 15.1731ZM168.406 18.4655L163.023 20.9953L155.843 10.064L161.613 7.32346L168.406 18.4655ZM161.713 21.6109L146.3 28.8564L139.031 23.8591L123.473 30.9763L121.054 26.5868L154.536 10.6846L161.713 21.6109ZM118.398 24.6747L112.474 20.3102L117.405 8.05016L131.885 18.2691L118.398 24.6747ZM111.149 19.7641L93.3122 27.2705L83.5877 10.6223L115.978 7.75919L111.149 19.7641ZM72.7231 25.296L60.7519 30.2346L55.9237 21.9442L67.0643 16.099L72.7231 25.296ZM64.442 39.4208L42.9405 48.4702L38.0565 41.1487L60.142 32.037L64.442 39.4208ZM42.0383 62.8272L65.9276 52.7953L74.8337 70.0612L59.1322 76.8746L53.2147 113.097L36.7485 103.338L42.0383 62.8272ZM40.7239 61.8246L26.7145 67.7077L27.5171 58.0714L42.0103 51.9711L40.7239 61.8246ZM70.6584 128.435L73.472 133.47L83.5104 131.847L74.1234 147.544L42.9126 129.901L52.7546 117.823L70.6584 128.435ZM75.8836 150.185L80.0438 152.537L72.7066 165.051L68.5686 162.418L75.8836 150.185ZM68.1486 178.492L78.3016 186.411L60.6508 228.782L46.1641 215.987L68.1486 178.492ZM69.1935 212.003L81.1468 215.545L74.1385 233.104L61.8964 229.52L69.1935 212.003ZM82.5271 215.954L90.6476 218.36L83.9769 235.985L75.5202 233.509L82.5271 215.954ZM83.0603 214.617L103.293 163.928L110.013 167.191L91.1565 217.016L83.0603 214.617ZM111.308 167.82L119.096 171.601L104.687 214.743L94.8 211.438L111.308 167.82ZM91.0325 156.381C93.6297 151.622 97.1808 145.157 98.3217 143.181C98.665 143.382 99.1624 143.659 99.8009 144.005C101.044 144.678 102.876 145.643 105.246 146.871C109.234 148.938 114.801 151.784 121.796 155.328C132.221 160.611 142.776 165.906 145.324 167.184L143.088 173.1L160.264 181.927L157.094 188.46L91.0325 156.381ZM159.147 190.795L253.33 218.465L250.803 230.509L152.298 204.91L159.147 190.795ZM255.005 217.463L254.982 217.456L257.138 204.937L216.998 193.425L221.322 182.272L288.834 213.848L288.337 220.637L295.505 223.621L252.265 230.519L255.005 217.463ZM289.842 219.711L290.224 214.498L306.11 221.929L298.201 223.191L289.842 219.711ZM299.606 214.139L309.546 190.793L317.314 194.589L307.366 217.77L299.606 214.139ZM318.603 195.22L338.289 204.84L332.568 219.092L312.247 210.032L318.603 195.22ZM331.824 200.085L264.918 167.39L275.017 139.635L342.308 177.556L331.824 200.085ZM263.623 166.757L249.703 159.955L259.972 131.157L273.75 138.921L263.623 166.757ZM248.407 159.321L233.517 152.045L245.012 122.727L258.705 130.443L248.407 159.321ZM243.654 116.414L239.676 110.433L240.498 107.402L253.655 108.212L243.654 116.414ZM240.881 105.989L242.363 100.527L269.096 95.5488L255.284 106.876L240.881 105.989ZM242.78 98.9909L245.36 89.4807L271.145 82.7233L273.444 91.9819L271.395 93.6625L242.78 98.9909ZM262.479 41.884L277.542 35.4813L274.147 88.8658L262.479 41.884ZM279.017 34.8535L305.346 23.662L326.149 59.8982L277.497 94.4193L275.452 90.942L279.017 34.8535ZM326.865 61.1473L329.66 66.0156L280.301 99.1858L278.227 95.6599L326.865 61.1473ZM393.355 101.372L401.289 105.8L389.806 121.219L381.296 116.374L393.355 101.372ZM380.035 115.656L366.822 108.133L379.172 93.4597L392.085 100.664L380.035 115.656ZM392.996 99.5313L380.112 92.3424L395.053 74.5913L407.764 81.1581L392.996 99.5313ZM394.157 73.4303L365.555 107.411L356.943 102.508L371.336 86.2944L374.887 88.4731L384.513 74.3992L387.273 75.8712L387.948 74.6063L380.488 70.6281L379.814 71.8923L383.241 73.7205L374.474 86.5381L371.062 84.4447L355.941 101.478L349.939 91.1921L375.754 71.9912V58.5243L394.157 55.1108V73.4303ZM354.955 102.632L351.937 106.46L344.399 106.929L335.498 100.214L346.187 92.2062L347.01 93.3708L348.782 92.0529L354.955 102.632ZM334.307 99.3156L326.968 93.7793L340.656 84.3888L345.358 91.0359L334.307 99.3156ZM325.761 92.8691L317.826 86.8843L334.365 75.4957L339.828 83.2185L325.761 92.8691ZM316.621 85.9741L312.404 82.7935L330.787 70.4396L333.536 74.3261L316.621 85.9741ZM311.145 83.6392L315.376 86.8312L288.722 105.185L282.722 102.74L311.145 83.6392ZM300.87 111.685L311.834 116.153L309.893 117.607L299.966 112.304L300.87 111.685ZM302.285 110.713L325.722 94.635L333.113 100.211L313.172 115.15L302.285 110.713ZM334.304 101.109L343.38 107.955L341.92 114.543L328.688 121.474L314.72 115.781L334.304 101.109ZM342.515 115.849L352.914 122.43L346.22 130.384L330.287 122.255L342.515 115.849ZM343.357 114.686L344.762 108.342L352.666 107.851L356.002 103.621L364.617 108.526L353.846 121.323L343.357 114.686ZM365.884 109.247L379.141 116.796L369.263 129.68L355.107 122.05L365.884 109.247ZM380.398 117.512L388.949 122.38L379.554 135.226L370.541 130.369L380.398 117.512ZM390.202 123.095L401.677 129.628L392.875 142.406L380.828 135.913L390.202 123.095ZM402.927 130.339L413.397 136.301L404.993 148.936L394.145 143.09L402.927 130.339ZM402.489 128.44L391.061 121.934L402.552 106.504L413.328 112.517L402.489 128.44ZM402.153 104.64L394.266 100.239L409.064 81.8296L416.341 85.5892L402.153 104.64ZM408.373 79.8595L395.59 73.2554V54.8449L415.023 51.2401L408.373 79.8595ZM373.316 54.6027L368.939 46.0615L384.595 31.9711L392.557 40.0981L396.192 36.7649L407.303 48.2989L373.316 54.6027ZM371.846 54.8758L371.454 54.9481V69.8304L347.977 87.292L336.864 71.5848L354.302 43.733L367.568 46.5287L371.846 54.8758ZM367.394 45.0273L353.618 42.1241L335.968 70.3171L331.873 64.5293L330.853 65.2144L306.674 23.0973L311.531 21.0326L303.44 12.7794L355.046 -2.4999L363.441 9.22191L369.144 21.0068L367.394 45.0273ZM365.118 9.3975L380.385 5.40351L370.001 19.486L365.118 9.3975ZM373.477 -19.8404L378.79 -18.1003L364.51 5.79194L361.033 0.935806L373.477 -19.8404ZM366.968 -21.9717L372.08 -20.2976L360.122 -0.334127L356.87 -4.87565L366.968 -21.9717ZM353.999 -26.218L365.573 -22.4283L355.678 -5.67688L339.247 -0.812143L336.255 -10.7523L353.999 -26.218ZM335.639 -22.305L340.569 -16.4133L334.616 -11.2246L337.873 -0.405077L298.057 11.3834L306.542 20.0386L288.81 27.5758L283.091 22.1578L335.639 -22.305ZM287.055 16.9254L280.943 22.0976L287.372 28.1878L261.967 38.9865L260.395 26.1295L279.65 9.3373L287.055 16.9254ZM298.868 -20.79V-9.32543L259.96 24.608L259.092 22.1807L268.866 3.38824L265.875 -5.86823L298.868 -20.79ZM267.318 3.25853L257.917 21.3343L238.707 18.09L236.82 7.27258L264.561 -5.2734L267.318 3.25853ZM264.117 -6.64581L236.567 5.81488L235.761 1.19667L262.851 -10.561L264.117 -6.64581ZM259.428 -21.1519L262.408 -11.9312L235.508 -0.25601L233.952 -9.17708L259.428 -21.1519ZM233.054 -26.6079L239.344 -14.8789L228.949 -9.99337L222.53 -21.6098L233.054 -26.6079ZM221.233 -20.9935L227.649 -9.38205L216.107 -3.95688L209.632 -15.483L221.233 -20.9935ZM208.334 -14.8667L214.807 -3.34556L206.006 0.79104L199.348 -10.5989L208.334 -14.8667ZM198.049 -9.9819L204.704 1.40379L196.221 5.39061L189.649 -5.99293L198.049 -9.9819ZM188.35 -5.37588L194.919 6.00264L185.26 10.5427L178.485 -0.689594L188.35 -5.37588ZM173.023 -25.7923L186.732 -7.78102L176.856 -3.08971L165.315 -18.0272L173.023 -25.7923ZM164.297 -17.0009L175.53 -2.46048L168.552 0.854109L158.459 -11.12L164.297 -17.0009ZM157.445 -10.0987L167.213 1.48979L161.394 4.25398L152.853 -5.47263L157.445 -10.0987ZM151.841 -4.45353L160.048 4.89324L153.886 7.8194L146.051 1.37871L151.841 -4.45353ZM131.856 -8.25401H132.074L152.456 8.49879L133.371 17.5632L118.154 6.82466L131.856 -8.25401ZM129.92 -8.25401L116.736 6.25348L77.0009 9.76586L85.1716 -7.61188L112.776 -8.25401H129.92ZM90.639 -19.2391L122.776 -20.1399L112.462 -9.6809L85.8531 -9.06098L90.639 -19.2391ZM87.7817 -16.5308L80.9519 -2.0054L75.0866 -9.03375L87.7817 -16.5308ZM73.8361 -8.29486L80.2789 -0.574211L75.2723 10.074L72.1605 11.7926L62.2203 -1.43493L73.8361 -8.29486ZM50.9579 -14.0361L60.1126 -1.85418L46.817 5.99834L38.0686 -5.72776L50.9579 -14.0361ZM32.5797 15.3L23.8492 3.43841L36.8611 -4.94946L46.4379 7.88676L60.9791 -0.701061L70.8827 12.4777L47.586 24.7005L39.1465 11.8076L38.303 12.2212L32.5797 15.3ZM14.1871 42.4186L32.0013 34.6657L39.0856 14.331L47.0994 26.5739L54.653 22.6107L59.4139 30.7864L35.8943 40.4908L41.5946 49.0363L27.7852 54.8478L27.8217 54.4092L14.1871 42.4186ZM24.3595 95.9931L26.5805 69.318L40.5096 63.4693L35.4069 102.542L24.3595 95.9931ZM34.9361 107.261L51.5076 117.084L40.7282 130.314L73.3874 148.774L66.1735 160.837L45.8789 146.968L19.4654 146.223L36.8725 126.302L24.5845 118.752L34.9361 107.261ZM15.4191 173.561L21.9013 166.252L0.4386 145.555L23.6084 119.835L34.6774 126.636L16.3852 147.57L45.4181 148.389L53.5866 153.971L24.1581 182.677L15.4191 173.561ZM24.123 184.711L24.1244 184.713L40.5476 168.693L45.3528 175.36L55.3195 168.488L59.6009 171.827L36.6633 210.183L33.0111 212.785L17.6071 191.034L24.123 184.711ZM9.90721 198.506L16.5665 192.044L31.8437 213.617L23.9223 219.262L9.90721 198.506ZM22.3328 230.276L16.5357 228.046L38.8161 212.168L61.8792 173.603L65.8682 176.714L43.6142 214.67L22.3328 230.276ZM54.9053 242.576L25.5255 231.489L45.2088 217.055L60.0689 230.18L54.9053 242.576ZM68.8165 246.437L56.2748 243.014L61.3417 230.85L73.6046 234.442L68.8165 246.437ZM78.9724 249.207L70.2083 246.816L74.9863 234.846L83.4681 237.33L78.9724 249.207ZM91.99 252.759L80.362 249.586L84.8477 237.734L95.9252 240.977L91.99 252.759ZM96.3795 239.617L85.3565 236.389L94.2919 212.78L104.233 216.103L96.3795 239.617ZM141.455 252.816L97.7555 240.02L120.396 172.233L129.163 176.491L115.57 217.24L115.498 217.455L119.34 230.206L131.958 232.189L134.619 225.372L145.657 226.687L141.455 252.816ZM145.884 225.27L133.686 223.817L131.042 230.593L120.877 228.996L128.12 209.685L134.571 212.044L138.36 202.546L143.725 204.627L144.244 203.291L132.06 198.567L131.542 199.903L137.023 202.028L133.756 210.221L127.278 207.851L119.971 227.329L117.002 217.477L130.464 177.122L156.468 189.75L149.181 204.764L145.884 225.27ZM221.164 245.301V234.236L148.734 225.609L151.842 206.272L250.508 231.913L250.434 232.263L308.423 223.011L321.134 228.956L221.164 245.301ZM352.45 238.856L308.666 218.377L311.681 211.349L355.612 230.936L352.45 238.856ZM356.143 229.604L333.878 219.676L339.58 205.47L361.501 216.182L356.143 229.604ZM357.431 230.244L363.079 216.097L371.917 194.241L385.532 201.914L371.194 237.943L357.431 230.244ZM414.458 218.214L399.403 253.721L386.772 246.656L401.753 211.055L414.458 218.214ZM400.496 210.346L385.512 245.951L372.456 238.649L386.792 202.624L400.496 210.346ZM372.173 172.363L393.935 183.962L386.109 200.594L364.484 188.407L372.173 172.363ZM370.908 171.688L363.233 187.702L323.162 165.121L331.693 150.787L370.908 171.688ZM330.427 150.111L321.913 164.417L304.649 154.689L314.843 141.805L330.427 150.111ZM303.385 153.976L245.54 121.379L246.091 119.976L274.053 97.0444L278.91 105.302L281.08 103.843L324.644 127.109L303.385 153.976ZM325.494 125.938L311.289 118.352L313.382 116.784L327.654 122.601L325.494 125.938ZM326.763 126.616L328.976 123.196L345.272 131.51L342.374 134.953L326.763 126.616ZM343.666 135.643L354.165 123.171L368.38 130.832L358.584 143.611L343.666 135.643ZM359.866 144.295L369.658 131.521L378.701 136.394L369.256 149.31L359.866 144.295ZM370.533 149.992L379.974 137.081L392.058 143.593L383.047 156.675L370.533 149.992ZM407.389 169.675L384.319 157.354L393.327 144.277L404.195 150.135L395.625 163.021L396.818 163.815L405.463 150.818L415.583 156.272L407.389 169.675ZM424.076 142.382L416.332 155.047L406.26 149.619L414.646 137.012L424.076 142.382ZM424.804 118.92L414.188 135.102L403.738 129.152L414.585 113.218L424.804 118.92ZM427.673 91.4444L414.138 111.327L403.415 105.345L417.631 86.2565L427.673 91.4444ZM426.244 49.1589L416.943 84.2871L409.687 80.5389L416.561 50.9549L426.244 49.1589ZM418.761 46.1733L408.991 47.9857L397.249 35.7959L402.604 30.8868L418.761 46.1733ZM405.99 25.8386L392.61 38.1043L384.657 29.9866L368.894 44.1738L370.573 21.1258L382.592 4.82659L383.216 4.66319L395.743 16.0883L405.99 25.8386ZM396.164 14.5324L384.868 4.23104L410.627 -2.50706L396.164 14.5324ZM398.956 -8.28268H421.378L394.663 -1.29446L392.751 -6.19646L398.956 -8.28268ZM393.267 -0.928961L384.545 1.35219L389.835 -9.73035L393.267 -0.928961Z" fill="white" fill-opacity="0.02"/>
<mask id="mask0_25_97" style="mask-type:alpha" maskUnits="userSpaceOnUse" x="217" y="0" width="213" height="169">
<path d="M326.977 93.8724C301.567 81.5807 306.779 54.1548 338.625 32.6138C365.814 14.2227 403.624 6.07372 429.915 11.7357V0H396.679C372.32 3.63078 346.715 12.9497 325.987 26.9706C285.677 54.2371 220.777 163.496 217.786 168.897C225.867 166.528 375.356 118.444 429.915 90.5494V77.6132C398.093 98.7787 352.194 106.071 326.977 93.8724Z" fill="url(#paint0_radial_25_97)"/>
</mask>
<g mask="url(#mask0_25_97)">
<path d="M326.977 93.8724C301.567 81.5807 306.779 54.1548 338.625 32.6138C365.814 14.2227 403.624 6.07372 429.915 11.7357V0H396.679C372.32 3.63078 346.715 12.9497 325.987 26.9706C285.677 54.2371 220.777 163.496 217.786 168.897C225.867 166.528 375.356 118.444 429.915 90.5494V77.6132C398.093 98.7787 352.194 106.071 326.977 93.8724Z" fill="url(#paint1_linear_25_97)"/>
</g>
<path d="M226.32 58.2245L202.326 72.1427C198.358 74.4442 195.898 79.3386 195.878 86.2944C195.838 100.298 205.703 117.354 217.912 124.389C224.055 127.929 229.622 128.258 233.641 125.926L257.635 112.008C253.616 114.34 248.05 114.011 241.906 110.471C229.698 103.435 219.832 86.3801 219.872 72.3763C219.892 65.4204 222.352 60.5264 226.32 58.2245Z" fill="#0BA578"/>
<path d="M245.967 115.339L269.961 101.42C269.911 119.147 243.186 153.148 241.78 154.938L217.785 168.856C219.192 167.066 245.917 133.064 245.967 115.339Z" fill="#064533"/>
<path d="M198.163 65.1693L222.157 51.2511C227.245 48.2994 234.292 48.7156 242.068 53.1975L218.075 67.1157C210.298 62.6338 203.251 62.218 198.163 65.1693Z" fill="#2C7A2D"/>
<path d="M190 83.0857C189.95 100.812 216.394 165.454 217.786 168.856C219.192 167.066 245.917 133.065 245.967 115.339C246.018 97.6125 233.53 76.0226 218.075 67.1163C202.62 58.2099 190.05 65.3598 190 83.0857ZM240.089 111.773C240.05 125.777 230.121 131.425 217.912 124.389C205.703 117.354 195.838 100.299 195.878 86.295C195.917 72.2924 205.847 66.645 218.056 73.6808C230.265 80.7161 240.129 97.7706 240.089 111.773Z" fill="#A8FFA9"/>
<path d="M218.075 67.1157L242.069 53.1975C257.524 62.1039 270.012 83.6941 269.961 101.42L245.967 115.338C246.018 97.6123 233.53 76.0225 218.075 67.1157Z" fill="#67FFB2"/>
<path d="M241.78 154.937C243.186 153.148 269.911 119.146 269.961 101.42C270.011 83.6937 257.524 62.1039 242.068 53.1975C234.292 48.7156 227.245 48.2994 222.157 51.2511L198.162 65.1693C203.251 62.2176 210.297 62.6338 218.075 67.1157C233.53 76.0221 246.017 97.6123 245.967 115.338C245.917 133.065 219.192 167.066 217.785 168.855L241.78 154.937Z" fill="#5AE0AE"/>
<path d="M32.984 41.016H28.792L28.12 43H25.256L29.32 31.768H32.488L36.552 43H33.656L32.984 41.016ZM32.28 38.904L30.888 34.792L29.512 38.904H32.28ZM37.2449 38.52C37.2449 37.6027 37.4155 36.7973 37.7569 36.104C38.1089 35.4107 38.5835 34.8773 39.1809 34.504C39.7782 34.1307 40.4449 33.944 41.1809 33.944C41.7675 33.944 42.3009 34.0667 42.7809 34.312C43.2715 34.5573 43.6555 34.888 43.9329 35.304V31.16H46.6689V43H43.9329V41.72C43.6769 42.1467 43.3089 42.488 42.8289 42.744C42.3595 43 41.8102 43.128 41.1809 43.128C40.4449 43.128 39.7782 42.9413 39.1809 42.568C38.5835 42.184 38.1089 41.6453 37.7569 40.952C37.4155 40.248 37.2449 39.4373 37.2449 38.52ZM43.9329 38.536C43.9329 37.8533 43.7409 37.3147 43.3569 36.92C42.9835 36.5253 42.5249 36.328 41.9809 36.328C41.4369 36.328 40.9729 36.5253 40.5889 36.92C40.2155 37.304 40.0289 37.8373 40.0289 38.52C40.0289 39.2027 40.2155 39.7467 40.5889 40.152C40.9729 40.5467 41.4369 40.744 41.9809 40.744C42.5249 40.744 42.9835 40.5467 43.3569 40.152C43.7409 39.7573 43.9329 39.2187 43.9329 38.536ZM48.1043 38.52C48.1043 37.6027 48.2749 36.7973 48.6163 36.104C48.9683 35.4107 49.4429 34.8773 50.0403 34.504C50.6376 34.1307 51.3043 33.944 52.0403 33.944C52.6269 33.944 53.1603 34.0667 53.6403 34.312C54.1309 34.5573 54.5149 34.888 54.7923 35.304V31.16H57.5283V43H54.7923V41.72C54.5363 42.1467 54.1683 42.488 53.6883 42.744C53.2189 43 52.6696 43.128 52.0403 43.128C51.3043 43.128 50.6376 42.9413 50.0403 42.568C49.4429 42.184 48.9683 41.6453 48.6163 40.952C48.2749 40.248 48.1043 39.4373 48.1043 38.52ZM54.7923 38.536C54.7923 37.8533 54.6003 37.3147 54.2163 36.92C53.8429 36.5253 53.3843 36.328 52.8403 36.328C52.2963 36.328 51.8323 36.5253 51.4483 36.92C51.0749 37.304 50.8883 37.8373 50.8883 38.52C50.8883 39.2027 51.0749 39.7467 51.4483 40.152C51.8323 40.5467 52.2963 40.744 52.8403 40.744C53.3843 40.744 53.8429 40.5467 54.2163 40.152C54.6003 39.7573 54.7923 39.2187 54.7923 38.536ZM62.2436 35.56C62.5636 35.0693 62.9636 34.6853 63.4436 34.408C63.9236 34.12 64.457 33.976 65.0436 33.976V36.872H64.2916C63.609 36.872 63.097 37.0213 62.7556 37.32C62.4143 37.608 62.2436 38.12 62.2436 38.856V43H59.5076V34.072H62.2436V35.56ZM74.7674 38.392C74.7674 38.648 74.7514 38.9147 74.7194 39.192H68.5274C68.57 39.7467 68.746 40.1733 69.0554 40.472C69.3754 40.76 69.7647 40.904 70.2234 40.904C70.906 40.904 71.3807 40.616 71.6474 40.04H74.5594C74.41 40.6267 74.138 41.1547 73.7434 41.624C73.3594 42.0933 72.874 42.4613 72.2874 42.728C71.7007 42.9947 71.0447 43.128 70.3194 43.128C69.4447 43.128 68.666 42.9413 67.9834 42.568C67.3007 42.1947 66.7674 41.6613 66.3834 40.968C65.9994 40.2747 65.8074 39.464 65.8074 38.536C65.8074 37.608 65.994 36.7973 66.3674 36.104C66.7514 35.4107 67.2847 34.8773 67.9674 34.504C68.65 34.1307 69.434 33.944 70.3194 33.944C71.1834 33.944 71.9514 34.1253 72.6234 34.488C73.2954 34.8507 73.818 35.368 74.1914 36.04C74.5754 36.712 74.7674 37.496 74.7674 38.392ZM71.9674 37.672C71.9674 37.2027 71.8074 36.8293 71.4874 36.552C71.1674 36.2747 70.7674 36.136 70.2874 36.136C69.8287 36.136 69.4394 36.2693 69.1194 36.536C68.81 36.8027 68.618 37.1813 68.5434 37.672H71.9674ZM79.8428 43.128C79.0641 43.128 78.3708 42.9947 77.7628 42.728C77.1548 42.4613 76.6748 42.0987 76.3228 41.64C75.9708 41.1707 75.7734 40.648 75.7308 40.072H78.4348C78.4668 40.3813 78.6108 40.632 78.8668 40.824C79.1228 41.016 79.4374 41.112 79.8108 41.112C80.1521 41.112 80.4134 41.048 80.5948 40.92C80.7868 40.7813 80.8828 40.6053 80.8828 40.392C80.8828 40.136 80.7494 39.9493 80.4828 39.832C80.2161 39.704 79.7841 39.5653 79.1868 39.416C78.5468 39.2667 78.0134 39.112 77.5868 38.952C77.1601 38.7813 76.7921 38.52 76.4828 38.168C76.1734 37.8053 76.0188 37.32 76.0188 36.712C76.0188 36.2 76.1574 35.736 76.4348 35.32C76.7228 34.8933 77.1388 34.5573 77.6828 34.312C78.2374 34.0667 78.8934 33.944 79.6508 33.944C80.7708 33.944 81.6508 34.2213 82.2908 34.776C82.9414 35.3307 83.3148 36.0667 83.4108 36.984H80.8828C80.8401 36.6747 80.7014 36.4293 80.4668 36.248C80.2428 36.0667 79.9441 35.976 79.5708 35.976C79.2508 35.976 79.0054 36.04 78.8348 36.168C78.6641 36.2853 78.5788 36.4507 78.5788 36.664C78.5788 36.92 78.7121 37.112 78.9788 37.24C79.2561 37.368 79.6828 37.496 80.2588 37.624C80.9201 37.7947 81.4588 37.9653 81.8748 38.136C82.2908 38.296 82.6534 38.5627 82.9628 38.936C83.2828 39.2987 83.4481 39.7893 83.4588 40.408C83.4588 40.9307 83.3094 41.4 83.0108 41.816C82.7228 42.2213 82.3014 42.5413 81.7468 42.776C81.2028 43.0107 80.5681 43.128 79.8428 43.128ZM88.7646 43.128C87.986 43.128 87.2926 42.9947 86.6846 42.728C86.0766 42.4613 85.5966 42.0987 85.2446 41.64C84.8926 41.1707 84.6953 40.648 84.6526 40.072H87.3566C87.3886 40.3813 87.5326 40.632 87.7886 40.824C88.0446 41.016 88.3593 41.112 88.7326 41.112C89.074 41.112 89.3353 41.048 89.5166 40.92C89.7086 40.7813 89.8046 40.6053 89.8046 40.392C89.8046 40.136 89.6713 39.9493 89.4046 39.832C89.138 39.704 88.706 39.5653 88.1086 39.416C87.4686 39.2667 86.9353 39.112 86.5086 38.952C86.082 38.7813 85.714 38.52 85.4046 38.168C85.0953 37.8053 84.9406 37.32 84.9406 36.712C84.9406 36.2 85.0793 35.736 85.3566 35.32C85.6446 34.8933 86.0606 34.5573 86.6046 34.312C87.1593 34.0667 87.8153 33.944 88.5726 33.944C89.6926 33.944 90.5726 34.2213 91.2126 34.776C91.8633 35.3307 92.2366 36.0667 92.3326 36.984H89.8046C89.762 36.6747 89.6233 36.4293 89.3886 36.248C89.1646 36.0667 88.866 35.976 88.4926 35.976C88.1726 35.976 87.9273 36.04 87.7566 36.168C87.586 36.2853 87.5006 36.4507 87.5006 36.664C87.5006 36.92 87.634 37.112 87.9006 37.24C88.178 37.368 88.6046 37.496 89.1806 37.624C89.842 37.7947 90.3806 37.9653 90.7966 38.136C91.2126 38.296 91.5753 38.5627 91.8846 38.936C92.2046 39.2987 92.37 39.7893 92.3806 40.408C92.3806 40.9307 92.2313 41.4 91.9326 41.816C91.6446 42.2213 91.2233 42.5413 90.6686 42.776C90.1246 43.0107 89.49 43.128 88.7646 43.128Z" fill="white"/>
<g filter="url(#filter0_b_25_97)">
<rect x="25" y="109" width="215" height="87" rx="25" fill="#D9D9D9" fill-opacity="0.15"/>
</g>
<path d="M51.29 155.4L50.91 157.2H52.29V158H50.74L50.31 160H49.44L49.87 158H47.77L47.34 160H46.47L46.9 158H45.33V157.2H47.07L47.45 155.4H45.9V154.6H47.62L48.05 152.6H48.92L48.49 154.6H50.59L51.02 152.6H51.89L51.46 154.6H52.85V155.4H51.29ZM50.42 155.4H48.32L47.94 157.2H50.04L50.42 155.4ZM53.9984 154.59C54.0451 153.977 54.2818 153.497 54.7084 153.15C55.1351 152.803 55.6884 152.63 56.3684 152.63C56.8218 152.63 57.2118 152.713 57.5384 152.88C57.8718 153.04 58.1218 153.26 58.2884 153.54C58.4618 153.82 58.5484 154.137 58.5484 154.49C58.5484 154.903 58.4284 155.26 58.1884 155.56C57.9551 155.86 57.6484 156.053 57.2684 156.14V156.19C57.7018 156.297 58.0451 156.507 58.2984 156.82C58.5518 157.133 58.6784 157.543 58.6784 158.05C58.6784 158.43 58.5918 158.773 58.4184 159.08C58.2451 159.38 57.9851 159.617 57.6384 159.79C57.2918 159.963 56.8751 160.05 56.3884 160.05C55.6818 160.05 55.1018 159.867 54.6484 159.5C54.1951 159.127 53.9418 158.6 53.8884 157.92H54.7684C54.8151 158.32 54.9784 158.647 55.2584 158.9C55.5384 159.153 55.9118 159.28 56.3784 159.28C56.8451 159.28 57.1984 159.16 57.4384 158.92C57.6851 158.673 57.8084 158.357 57.8084 157.97C57.8084 157.47 57.6418 157.11 57.3084 156.89C56.9751 156.67 56.4718 156.56 55.7984 156.56H55.5684V155.8H55.8084C56.4218 155.793 56.8851 155.693 57.1984 155.5C57.5118 155.3 57.6684 154.993 57.6684 154.58C57.6684 154.227 57.5518 153.943 57.3184 153.73C57.0918 153.517 56.7651 153.41 56.3384 153.41C55.9251 153.41 55.5918 153.517 55.3384 153.73C55.0851 153.943 54.9351 154.23 54.8884 154.59H53.9984ZM59.6871 158.39V157.7L63.1971 152.84H64.2871V157.6H65.2871V158.39H64.2871V160H63.3871V158.39H59.6871ZM63.4271 153.79L60.7371 157.6H63.4271V153.79ZM74.3822 153.03V160H73.4722V156.84H69.9222V160H69.0122V153.03H69.9222V156.09H73.4722V153.03H74.3822ZM75.596 157.24C75.596 156.68 75.7093 156.19 75.936 155.77C76.1627 155.343 76.4727 155.013 76.866 154.78C77.266 154.547 77.7093 154.43 78.196 154.43C78.676 154.43 79.0927 154.533 79.446 154.74C79.7993 154.947 80.0627 155.207 80.236 155.52V154.52H81.156V160H80.236V158.98C80.056 159.3 79.786 159.567 79.426 159.78C79.0727 159.987 78.6593 160.09 78.186 160.09C77.6993 160.09 77.2593 159.97 76.866 159.73C76.4727 159.49 76.1627 159.153 75.936 158.72C75.7093 158.287 75.596 157.793 75.596 157.24ZM80.236 157.25C80.236 156.837 80.1527 156.477 79.986 156.17C79.8193 155.863 79.5927 155.63 79.306 155.47C79.026 155.303 78.716 155.22 78.376 155.22C78.036 155.22 77.726 155.3 77.446 155.46C77.166 155.62 76.9427 155.853 76.776 156.16C76.6093 156.467 76.526 156.827 76.526 157.24C76.526 157.66 76.6093 158.027 76.776 158.34C76.9427 158.647 77.166 158.883 77.446 159.05C77.726 159.21 78.036 159.29 78.376 159.29C78.716 159.29 79.026 159.21 79.306 159.05C79.5927 158.883 79.8193 158.647 79.986 158.34C80.1527 158.027 80.236 157.663 80.236 157.25ZM83.6038 155.41C83.7638 155.097 83.9905 154.853 84.2838 154.68C84.5838 154.507 84.9472 154.42 85.3738 154.42V155.36H85.1338C84.1138 155.36 83.6038 155.913 83.6038 157.02V160H82.6938V154.52H83.6038V155.41ZM88.3643 160.09C87.9443 160.09 87.5676 160.02 87.2343 159.88C86.901 159.733 86.6376 159.533 86.4443 159.28C86.251 159.02 86.1443 158.723 86.1243 158.39H87.0643C87.091 158.663 87.2176 158.887 87.4443 159.06C87.6776 159.233 87.981 159.32 88.3543 159.32C88.701 159.32 88.9743 159.243 89.1743 159.09C89.3743 158.937 89.4743 158.743 89.4743 158.51C89.4743 158.27 89.3676 158.093 89.1543 157.98C88.941 157.86 88.611 157.743 88.1643 157.63C87.7576 157.523 87.4243 157.417 87.1643 157.31C86.911 157.197 86.691 157.033 86.5043 156.82C86.3243 156.6 86.2343 156.313 86.2343 155.96C86.2343 155.68 86.3176 155.423 86.4843 155.19C86.651 154.957 86.8876 154.773 87.1943 154.64C87.501 154.5 87.851 154.43 88.2443 154.43C88.851 154.43 89.341 154.583 89.7143 154.89C90.0876 155.197 90.2876 155.617 90.3143 156.15H89.4043C89.3843 155.863 89.2676 155.633 89.0543 155.46C88.8476 155.287 88.5676 155.2 88.2143 155.2C87.8876 155.2 87.6276 155.27 87.4343 155.41C87.241 155.55 87.1443 155.733 87.1443 155.96C87.1443 156.14 87.201 156.29 87.3143 156.41C87.4343 156.523 87.581 156.617 87.7543 156.69C87.9343 156.757 88.181 156.833 88.4943 156.92C88.8876 157.027 89.2076 157.133 89.4543 157.24C89.701 157.34 89.911 157.493 90.0843 157.7C90.2643 157.907 90.3576 158.177 90.3643 158.51C90.3643 158.81 90.281 159.08 90.1143 159.32C89.9476 159.56 89.711 159.75 89.4043 159.89C89.1043 160.023 88.7576 160.09 88.3643 160.09ZM94.3689 154.42C94.7822 154.42 95.1556 154.51 95.4889 154.69C95.8222 154.863 96.0822 155.127 96.2689 155.48C96.4622 155.833 96.5589 156.263 96.5589 156.77V160H95.6589V156.9C95.6589 156.353 95.5222 155.937 95.2489 155.65C94.9756 155.357 94.6022 155.21 94.1289 155.21C93.6489 155.21 93.2656 155.36 92.9789 155.66C92.6989 155.96 92.5589 156.397 92.5589 156.97V160H91.6489V152.6H92.5589V155.3C92.7389 155.02 92.9856 154.803 93.2989 154.65C93.6189 154.497 93.9756 154.42 94.3689 154.42ZM103.431 154.42C103.845 154.42 104.218 154.51 104.551 154.69C104.885 154.863 105.145 155.127 105.331 155.48C105.525 155.833 105.621 156.263 105.621 156.77V160H104.721V156.9C104.721 156.353 104.585 155.937 104.311 155.65C104.038 155.357 103.665 155.21 103.191 155.21C102.711 155.21 102.328 155.36 102.041 155.66C101.761 155.96 101.621 156.397 101.621 156.97V160H100.711V152.6H101.621V155.3C101.801 155.02 102.048 154.803 102.361 154.65C102.681 154.497 103.038 154.42 103.431 154.42ZM112.108 157.05C112.108 157.223 112.098 157.407 112.078 157.6H107.698C107.731 158.14 107.915 158.563 108.248 158.87C108.588 159.17 108.998 159.32 109.478 159.32C109.871 159.32 110.198 159.23 110.458 159.05C110.725 158.863 110.911 158.617 111.018 158.31H111.998C111.851 158.837 111.558 159.267 111.118 159.6C110.678 159.927 110.131 160.09 109.478 160.09C108.958 160.09 108.491 159.973 108.078 159.74C107.671 159.507 107.351 159.177 107.118 158.75C106.885 158.317 106.768 157.817 106.768 157.25C106.768 156.683 106.881 156.187 107.108 155.76C107.335 155.333 107.651 155.007 108.058 154.78C108.471 154.547 108.945 154.43 109.478 154.43C109.998 154.43 110.458 154.543 110.858 154.77C111.258 154.997 111.565 155.31 111.778 155.71C111.998 156.103 112.108 156.55 112.108 157.05ZM111.168 156.86C111.168 156.513 111.091 156.217 110.938 155.97C110.785 155.717 110.575 155.527 110.308 155.4C110.048 155.267 109.758 155.2 109.438 155.2C108.978 155.2 108.585 155.347 108.258 155.64C107.938 155.933 107.755 156.34 107.708 156.86H111.168ZM113.779 153.63C113.606 153.63 113.459 153.57 113.339 153.45C113.219 153.33 113.159 153.183 113.159 153.01C113.159 152.837 113.219 152.69 113.339 152.57C113.459 152.45 113.606 152.39 113.779 152.39C113.946 152.39 114.086 152.45 114.199 152.57C114.319 152.69 114.379 152.837 114.379 153.01C114.379 153.183 114.319 153.33 114.199 153.45C114.086 153.57 113.946 153.63 113.779 153.63ZM114.219 154.52V160H113.309V154.52H114.219ZM118.03 154.43C118.503 154.43 118.917 154.533 119.27 154.74C119.63 154.947 119.897 155.207 120.07 155.52V154.52H120.99V160.12C120.99 160.62 120.883 161.063 120.67 161.45C120.457 161.843 120.15 162.15 119.75 162.37C119.357 162.59 118.897 162.7 118.37 162.7C117.65 162.7 117.05 162.53 116.57 162.19C116.09 161.85 115.807 161.387 115.72 160.8H116.62C116.72 161.133 116.927 161.4 117.24 161.6C117.553 161.807 117.93 161.91 118.37 161.91C118.87 161.91 119.277 161.753 119.59 161.44C119.91 161.127 120.07 160.687 120.07 160.12V158.97C119.89 159.29 119.623 159.557 119.27 159.77C118.917 159.983 118.503 160.09 118.03 160.09C117.543 160.09 117.1 159.97 116.7 159.73C116.307 159.49 115.997 159.153 115.77 158.72C115.543 158.287 115.43 157.793 115.43 157.24C115.43 156.68 115.543 156.19 115.77 155.77C115.997 155.343 116.307 155.013 116.7 154.78C117.1 154.547 117.543 154.43 118.03 154.43ZM120.07 157.25C120.07 156.837 119.987 156.477 119.82 156.17C119.653 155.863 119.427 155.63 119.14 155.47C118.86 155.303 118.55 155.22 118.21 155.22C117.87 155.22 117.56 155.3 117.28 155.46C117 155.62 116.777 155.853 116.61 156.16C116.443 156.467 116.36 156.827 116.36 157.24C116.36 157.66 116.443 158.027 116.61 158.34C116.777 158.647 117 158.883 117.28 159.05C117.56 159.21 117.87 159.29 118.21 159.29C118.55 159.29 118.86 159.21 119.14 159.05C119.427 158.883 119.653 158.647 119.82 158.34C119.987 158.027 120.07 157.663 120.07 157.25ZM125.248 154.42C125.661 154.42 126.034 154.51 126.368 154.69C126.701 154.863 126.961 155.127 127.148 155.48C127.341 155.833 127.438 156.263 127.438 156.77V160H126.538V156.9C126.538 156.353 126.401 155.937 126.128 155.65C125.854 155.357 125.481 155.21 125.008 155.21C124.528 155.21 124.144 155.36 123.858 155.66C123.578 155.96 123.438 156.397 123.438 156.97V160H122.528V152.6H123.438V155.3C123.618 155.02 123.864 154.803 124.178 154.65C124.498 154.497 124.854 154.42 125.248 154.42ZM130.034 155.27V158.5C130.034 158.767 130.091 158.957 130.204 159.07C130.318 159.177 130.514 159.23 130.794 159.23H131.464V160H130.644C130.138 160 129.758 159.883 129.504 159.65C129.251 159.417 129.124 159.033 129.124 158.5V155.27H128.414V154.52H129.124V153.14H130.034V154.52H131.464V155.27H130.034ZM134.507 160.09C134.087 160.09 133.71 160.02 133.377 159.88C133.044 159.733 132.78 159.533 132.587 159.28C132.394 159.02 132.287 158.723 132.267 158.39H133.207C133.234 158.663 133.36 158.887 133.587 159.06C133.82 159.233 134.124 159.32 134.497 159.32C134.844 159.32 135.117 159.243 135.317 159.09C135.517 158.937 135.617 158.743 135.617 158.51C135.617 158.27 135.51 158.093 135.297 157.98C135.084 157.86 134.754 157.743 134.307 157.63C133.9 157.523 133.567 157.417 133.307 157.31C133.054 157.197 132.834 157.033 132.647 156.82C132.467 156.6 132.377 156.313 132.377 155.96C132.377 155.68 132.46 155.423 132.627 155.19C132.794 154.957 133.03 154.773 133.337 154.64C133.644 154.5 133.994 154.43 134.387 154.43C134.994 154.43 135.484 154.583 135.857 154.89C136.23 155.197 136.43 155.617 136.457 156.15H135.547C135.527 155.863 135.41 155.633 135.197 155.46C134.99 155.287 134.71 155.2 134.357 155.2C134.03 155.2 133.77 155.27 133.577 155.41C133.384 155.55 133.287 155.733 133.287 155.96C133.287 156.14 133.344 156.29 133.457 156.41C133.577 156.523 133.724 156.617 133.897 156.69C134.077 156.757 134.324 156.833 134.637 156.92C135.03 157.027 135.35 157.133 135.597 157.24C135.844 157.34 136.054 157.493 136.227 157.7C136.407 157.907 136.5 158.177 136.507 158.51C136.507 158.81 136.424 159.08 136.257 159.32C136.09 159.56 135.854 159.75 135.547 159.89C135.247 160.023 134.9 160.09 134.507 160.09ZM138.731 158.74L137.611 161.43H137.001L137.731 158.74H138.731ZM142.05 153.6V152.77H143.93V160H143.01V153.6H142.05ZM146.813 156.24C146.44 156.093 146.153 155.88 145.953 155.6C145.753 155.32 145.653 154.98 145.653 154.58C145.653 154.22 145.743 153.897 145.923 153.61C146.103 153.317 146.37 153.087 146.723 152.92C147.083 152.747 147.516 152.66 148.023 152.66C148.53 152.66 148.96 152.747 149.313 152.92C149.673 153.087 149.943 153.317 150.123 153.61C150.31 153.897 150.403 154.22 150.403 154.58C150.403 154.967 150.3 155.307 150.093 155.6C149.886 155.887 149.603 156.1 149.243 156.24C149.656 156.367 149.983 156.59 150.223 156.91C150.47 157.223 150.593 157.603 150.593 158.05C150.593 158.483 150.486 158.863 150.273 159.19C150.06 159.51 149.756 159.76 149.363 159.94C148.976 160.113 148.53 160.2 148.023 160.2C147.516 160.2 147.07 160.113 146.683 159.94C146.303 159.76 146.006 159.51 145.793 159.19C145.58 158.863 145.473 158.483 145.473 158.05C145.473 157.603 145.593 157.22 145.833 156.9C146.073 156.58 146.4 156.36 146.813 156.24ZM149.523 154.69C149.523 154.283 149.39 153.97 149.123 153.75C148.856 153.53 148.49 153.42 148.023 153.42C147.563 153.42 147.2 153.53 146.933 153.75C146.666 153.97 146.533 154.287 146.533 154.7C146.533 155.073 146.67 155.373 146.943 155.6C147.223 155.827 147.583 155.94 148.023 155.94C148.47 155.94 148.83 155.827 149.103 155.6C149.383 155.367 149.523 155.063 149.523 154.69ZM148.023 156.64C147.53 156.64 147.126 156.757 146.813 156.99C146.5 157.217 146.343 157.56 146.343 158.02C146.343 158.447 146.493 158.79 146.793 159.05C147.1 159.31 147.51 159.44 148.023 159.44C148.536 159.44 148.943 159.31 149.243 159.05C149.543 158.79 149.693 158.447 149.693 158.02C149.693 157.573 149.54 157.233 149.233 157C148.926 156.76 148.523 156.64 148.023 156.64ZM153.062 155.27V158.5C153.062 158.767 153.118 158.957 153.232 159.07C153.345 159.177 153.542 159.23 153.822 159.23H154.492V160H153.672C153.165 160 152.785 159.883 152.532 159.65C152.278 159.417 152.152 159.033 152.152 158.5V155.27H151.442V154.52H152.152V153.14H153.062V154.52H154.492V155.27H153.062ZM158.314 154.42C158.728 154.42 159.101 154.51 159.434 154.69C159.768 154.863 160.028 155.127 160.214 155.48C160.408 155.833 160.504 156.263 160.504 156.77V160H159.604V156.9C159.604 156.353 159.468 155.937 159.194 155.65C158.921 155.357 158.548 155.21 158.074 155.21C157.594 155.21 157.211 155.36 156.924 155.66C156.644 155.96 156.504 156.397 156.504 156.97V160H155.594V152.6H156.504V155.3C156.684 155.02 156.931 154.803 157.244 154.65C157.564 154.497 157.921 154.42 158.314 154.42ZM164.317 156.51C164.317 155.83 164.47 155.22 164.777 154.68C165.083 154.133 165.5 153.707 166.027 153.4C166.56 153.093 167.15 152.94 167.797 152.94C168.557 152.94 169.22 153.123 169.787 153.49C170.353 153.857 170.767 154.377 171.027 155.05H169.937C169.743 154.63 169.463 154.307 169.097 154.08C168.737 153.853 168.303 153.74 167.797 153.74C167.31 153.74 166.873 153.853 166.487 154.08C166.1 154.307 165.797 154.63 165.577 155.05C165.357 155.463 165.247 155.95 165.247 156.51C165.247 157.063 165.357 157.55 165.577 157.97C165.797 158.383 166.1 158.703 166.487 158.93C166.873 159.157 167.31 159.27 167.797 159.27C168.303 159.27 168.737 159.16 169.097 158.94C169.463 158.713 169.743 158.39 169.937 157.97H171.027C170.767 158.637 170.353 159.153 169.787 159.52C169.22 159.88 168.557 160.06 167.797 160.06C167.15 160.06 166.56 159.91 166.027 159.61C165.5 159.303 165.083 158.88 164.777 158.34C164.47 157.8 164.317 157.19 164.317 156.51ZM173.291 155.41C173.451 155.097 173.678 154.853 173.971 154.68C174.271 154.507 174.635 154.42 175.061 154.42V155.36H174.821C173.801 155.36 173.291 155.913 173.291 157.02V160H172.381V154.52H173.291V155.41ZM178.502 160.09C177.988 160.09 177.522 159.973 177.102 159.74C176.688 159.507 176.362 159.177 176.122 158.75C175.888 158.317 175.772 157.817 175.772 157.25C175.772 156.69 175.892 156.197 176.132 155.77C176.378 155.337 176.712 155.007 177.132 154.78C177.552 154.547 178.022 154.43 178.542 154.43C179.062 154.43 179.532 154.547 179.952 154.78C180.372 155.007 180.702 155.333 180.942 155.76C181.188 156.187 181.312 156.683 181.312 157.25C181.312 157.817 181.185 158.317 180.932 158.75C180.685 159.177 180.348 159.507 179.922 159.74C179.495 159.973 179.022 160.09 178.502 160.09ZM178.502 159.29C178.828 159.29 179.135 159.213 179.422 159.06C179.708 158.907 179.938 158.677 180.112 158.37C180.292 158.063 180.382 157.69 180.382 157.25C180.382 156.81 180.295 156.437 180.122 156.13C179.948 155.823 179.722 155.597 179.442 155.45C179.162 155.297 178.858 155.22 178.532 155.22C178.198 155.22 177.892 155.297 177.612 155.45C177.338 155.597 177.118 155.823 176.952 156.13C176.785 156.437 176.702 156.81 176.702 157.25C176.702 157.697 176.782 158.073 176.942 158.38C177.108 158.687 177.328 158.917 177.602 159.07C177.875 159.217 178.175 159.29 178.502 159.29ZM184.448 160.09C184.028 160.09 183.652 160.02 183.318 159.88C182.985 159.733 182.722 159.533 182.528 159.28C182.335 159.02 182.228 158.723 182.208 158.39H183.148C183.175 158.663 183.302 158.887 183.528 159.06C183.762 159.233 184.065 159.32 184.438 159.32C184.785 159.32 185.058 159.243 185.258 159.09C185.458 158.937 185.558 158.743 185.558 158.51C185.558 158.27 185.452 158.093 185.238 157.98C185.025 157.86 184.695 157.743 184.248 157.63C183.842 157.523 183.508 157.417 183.248 157.31C182.995 157.197 182.775 157.033 182.588 156.82C182.408 156.6 182.318 156.313 182.318 155.96C182.318 155.68 182.402 155.423 182.568 155.19C182.735 154.957 182.972 154.773 183.278 154.64C183.585 154.5 183.935 154.43 184.328 154.43C184.935 154.43 185.425 154.583 185.798 154.89C186.172 155.197 186.372 155.617 186.398 156.15H185.488C185.468 155.863 185.352 155.633 185.138 155.46C184.932 155.287 184.652 155.2 184.298 155.2C183.972 155.2 183.712 155.27 183.518 155.41C183.325 155.55 183.228 155.733 183.228 155.96C183.228 156.14 183.285 156.29 183.398 156.41C183.518 156.523 183.665 156.617 183.838 156.69C184.018 156.757 184.265 156.833 184.578 156.92C184.972 157.027 185.292 157.133 185.538 157.24C185.785 157.34 185.995 157.493 186.168 157.7C186.348 157.907 186.442 158.177 186.448 158.51C186.448 158.81 186.365 159.08 186.198 159.32C186.032 159.56 185.795 159.75 185.488 159.89C185.188 160.023 184.842 160.09 184.448 160.09ZM189.673 160.09C189.253 160.09 188.876 160.02 188.543 159.88C188.21 159.733 187.946 159.533 187.753 159.28C187.56 159.02 187.453 158.723 187.433 158.39H188.373C188.4 158.663 188.526 158.887 188.753 159.06C188.986 159.233 189.29 159.32 189.663 159.32C190.01 159.32 190.283 159.243 190.483 159.09C190.683 158.937 190.783 158.743 190.783 158.51C190.783 158.27 190.676 158.093 190.463 157.98C190.25 157.86 189.92 157.743 189.473 157.63C189.066 157.523 188.733 157.417 188.473 157.31C188.22 157.197 188 157.033 187.813 156.82C187.633 156.6 187.543 156.313 187.543 155.96C187.543 155.68 187.626 155.423 187.793 155.19C187.96 154.957 188.196 154.773 188.503 154.64C188.81 154.5 189.16 154.43 189.553 154.43C190.16 154.43 190.65 154.583 191.023 154.89C191.396 155.197 191.596 155.617 191.623 156.15H190.713C190.693 155.863 190.576 155.633 190.363 155.46C190.156 155.287 189.876 155.2 189.523 155.2C189.196 155.2 188.936 155.27 188.743 155.41C188.55 155.55 188.453 155.733 188.453 155.96C188.453 156.14 188.51 156.29 188.623 156.41C188.743 156.523 188.89 156.617 189.063 156.69C189.243 156.757 189.49 156.833 189.803 156.92C190.196 157.027 190.516 157.133 190.763 157.24C191.01 157.34 191.22 157.493 191.393 157.7C191.573 157.907 191.666 158.177 191.673 158.51C191.673 158.81 191.59 159.08 191.423 159.32C191.256 159.56 191.02 159.75 190.713 159.89C190.413 160.023 190.066 160.09 189.673 160.09ZM47.98 175.07C47.52 175.07 47.1067 174.99 46.74 174.83C46.38 174.663 46.0967 174.437 45.89 174.15C45.6833 173.857 45.5767 173.52 45.57 173.14H46.54C46.5733 173.467 46.7067 173.743 46.94 173.97C47.18 174.19 47.5267 174.3 47.98 174.3C48.4133 174.3 48.7533 174.193 49 173.98C49.2533 173.76 49.38 173.48 49.38 173.14C49.38 172.873 49.3067 172.657 49.16 172.49C49.0133 172.323 48.83 172.197 48.61 172.11C48.39 172.023 48.0933 171.93 47.72 171.83C47.26 171.71 46.89 171.59 46.61 171.47C46.3367 171.35 46.1 171.163 45.9 170.91C45.7067 170.65 45.61 170.303 45.61 169.87C45.61 169.49 45.7067 169.153 45.9 168.86C46.0933 168.567 46.3633 168.34 46.71 168.18C47.0633 168.02 47.4667 167.94 47.92 167.94C48.5733 167.94 49.1067 168.103 49.52 168.43C49.94 168.757 50.1767 169.19 50.23 169.73H49.23C49.1967 169.463 49.0567 169.23 48.81 169.03C48.5633 168.823 48.2367 168.72 47.83 168.72C47.45 168.72 47.14 168.82 46.9 169.02C46.66 169.213 46.54 169.487 46.54 169.84C46.54 170.093 46.61 170.3 46.75 170.46C46.8967 170.62 47.0733 170.743 47.28 170.83C47.4933 170.91 47.79 171.003 48.17 171.11C48.63 171.237 49 171.363 49.28 171.49C49.56 171.61 49.8 171.8 50 172.06C50.2 172.313 50.3 172.66 50.3 173.1C50.3 173.44 50.21 173.76 50.03 174.06C49.85 174.36 49.5833 174.603 49.23 174.79C48.8767 174.977 48.46 175.07 47.98 175.07ZM52.1091 168.63C51.9358 168.63 51.7891 168.57 51.6691 168.45C51.5491 168.33 51.4891 168.183 51.4891 168.01C51.4891 167.837 51.5491 167.69 51.6691 167.57C51.7891 167.45 51.9358 167.39 52.1091 167.39C52.2758 167.39 52.4158 167.45 52.5291 167.57C52.6491 167.69 52.7091 167.837 52.7091 168.01C52.7091 168.183 52.6491 168.33 52.5291 168.45C52.4158 168.57 52.2758 168.63 52.1091 168.63ZM52.5491 169.52V175H51.6391V169.52H52.5491ZM55.2101 170.27V173.5C55.2101 173.767 55.2667 173.957 55.3801 174.07C55.4934 174.177 55.6901 174.23 55.9701 174.23H56.6401V175H55.8201C55.3134 175 54.9334 174.883 54.6801 174.65C54.4267 174.417 54.3001 174.033 54.3001 173.5V170.27H53.5901V169.52H54.3001V168.14H55.2101V169.52H56.6401V170.27H55.2101ZM57.4027 172.24C57.4027 171.68 57.516 171.19 57.7427 170.77C57.9693 170.343 58.2793 170.013 58.6727 169.78C59.0727 169.547 59.516 169.43 60.0027 169.43C60.4827 169.43 60.8993 169.533 61.2527 169.74C61.606 169.947 61.8693 170.207 62.0427 170.52V169.52H62.9627V175H62.0427V173.98C61.8627 174.3 61.5927 174.567 61.2327 174.78C60.8793 174.987 60.466 175.09 59.9927 175.09C59.506 175.09 59.066 174.97 58.6727 174.73C58.2793 174.49 57.9693 174.153 57.7427 173.72C57.516 173.287 57.4027 172.793 57.4027 172.24ZM62.0427 172.25C62.0427 171.837 61.9593 171.477 61.7927 171.17C61.626 170.863 61.3993 170.63 61.1127 170.47C60.8327 170.303 60.5227 170.22 60.1827 170.22C59.8427 170.22 59.5327 170.3 59.2527 170.46C58.9727 170.62 58.7493 170.853 58.5827 171.16C58.416 171.467 58.3327 171.827 58.3327 172.24C58.3327 172.66 58.416 173.027 58.5827 173.34C58.7493 173.647 58.9727 173.883 59.2527 174.05C59.5327 174.21 59.8427 174.29 60.1827 174.29C60.5227 174.29 60.8327 174.21 61.1127 174.05C61.3993 173.883 61.626 173.647 61.7927 173.34C61.9593 173.027 62.0427 172.663 62.0427 172.25ZM67.1705 169.42C67.8371 169.42 68.3771 169.623 68.7905 170.03C69.2038 170.43 69.4105 171.01 69.4105 171.77V175H68.5105V171.9C68.5105 171.353 68.3738 170.937 68.1005 170.65C67.8271 170.357 67.4538 170.21 66.9805 170.21C66.5005 170.21 66.1171 170.36 65.8305 170.66C65.5505 170.96 65.4105 171.397 65.4105 171.97V175H64.5005V169.52H65.4105V170.3C65.5905 170.02 65.8338 169.803 66.1405 169.65C66.4538 169.497 66.7971 169.42 67.1705 169.42ZM70.557 172.24C70.557 171.68 70.6703 171.19 70.897 170.77C71.1236 170.343 71.4336 170.013 71.827 169.78C72.227 169.547 72.6703 169.43 73.157 169.43C73.637 169.43 74.0536 169.533 74.407 169.74C74.7603 169.947 75.0236 170.207 75.197 170.52V169.52H76.117V175H75.197V173.98C75.017 174.3 74.747 174.567 74.387 174.78C74.0336 174.987 73.6203 175.09 73.147 175.09C72.6603 175.09 72.2203 174.97 71.827 174.73C71.4336 174.49 71.1236 174.153 70.897 173.72C70.6703 173.287 70.557 172.793 70.557 172.24ZM75.197 172.25C75.197 171.837 75.1136 171.477 74.947 171.17C74.7803 170.863 74.5536 170.63 74.267 170.47C73.987 170.303 73.677 170.22 73.337 170.22C72.997 170.22 72.687 170.3 72.407 170.46C72.127 170.62 71.9036 170.853 71.737 171.16C71.5703 171.467 71.487 171.827 71.487 172.24C71.487 172.66 71.5703 173.027 71.737 173.34C71.9036 173.647 72.127 173.883 72.407 174.05C72.687 174.21 72.997 174.29 73.337 174.29C73.677 174.29 73.987 174.21 74.267 174.05C74.5536 173.883 74.7803 173.647 74.947 173.34C75.1136 173.027 75.197 172.663 75.197 172.25ZM79.9148 169.43C80.3881 169.43 80.8014 169.533 81.1548 169.74C81.5148 169.947 81.7814 170.207 81.9548 170.52V169.52H82.8748V175.12C82.8748 175.62 82.7681 176.063 82.5548 176.45C82.3414 176.843 82.0348 177.15 81.6348 177.37C81.2414 177.59 80.7814 177.7 80.2548 177.7C79.5348 177.7 78.9348 177.53 78.4548 177.19C77.9748 176.85 77.6914 176.387 77.6048 175.8H78.5048C78.6048 176.133 78.8114 176.4 79.1248 176.6C79.4381 176.807 79.8148 176.91 80.2548 176.91C80.7548 176.91 81.1614 176.753 81.4748 176.44C81.7948 176.127 81.9548 175.687 81.9548 175.12V173.97C81.7748 174.29 81.5081 174.557 81.1548 174.77C80.8014 174.983 80.3881 175.09 79.9148 175.09C79.4281 175.09 78.9848 174.97 78.5848 174.73C78.1914 174.49 77.8814 174.153 77.6548 173.72C77.4281 173.287 77.3148 172.793 77.3148 172.24C77.3148 171.68 77.4281 171.19 77.6548 170.77C77.8814 170.343 78.1914 170.013 78.5848 169.78C78.9848 169.547 79.4281 169.43 79.9148 169.43ZM81.9548 172.25C81.9548 171.837 81.8714 171.477 81.7048 171.17C81.5381 170.863 81.3114 170.63 81.0248 170.47C80.7448 170.303 80.4348 170.22 80.0948 170.22C79.7548 170.22 79.4448 170.3 79.1648 170.46C78.8848 170.62 78.6614 170.853 78.4948 171.16C78.3281 171.467 78.2448 171.827 78.2448 172.24C78.2448 172.66 78.3281 173.027 78.4948 173.34C78.6614 173.647 78.8848 173.883 79.1648 174.05C79.4448 174.21 79.7548 174.29 80.0948 174.29C80.4348 174.29 80.7448 174.21 81.0248 174.05C81.3114 173.883 81.5381 173.647 81.7048 173.34C81.8714 173.027 81.9548 172.663 81.9548 172.25ZM84.0726 172.24C84.0726 171.68 84.1859 171.19 84.4126 170.77C84.6392 170.343 84.9492 170.013 85.3426 169.78C85.7426 169.547 86.1859 169.43 86.6726 169.43C87.1526 169.43 87.5692 169.533 87.9226 169.74C88.2759 169.947 88.5392 170.207 88.7126 170.52V169.52H89.6326V175H88.7126V173.98C88.5326 174.3 88.2626 174.567 87.9026 174.78C87.5492 174.987 87.1359 175.09 86.6626 175.09C86.1759 175.09 85.7359 174.97 85.3426 174.73C84.9492 174.49 84.6392 174.153 84.4126 173.72C84.1859 173.287 84.0726 172.793 84.0726 172.24ZM88.7126 172.25C88.7126 171.837 88.6292 171.477 88.4626 171.17C88.2959 170.863 88.0692 170.63 87.7826 170.47C87.5026 170.303 87.1926 170.22 86.8526 170.22C86.5126 170.22 86.2026 170.3 85.9226 170.46C85.6426 170.62 85.4192 170.853 85.2526 171.16C85.0859 171.467 85.0026 171.827 85.0026 172.24C85.0026 172.66 85.0859 173.027 85.2526 173.34C85.4192 173.647 85.6426 173.883 85.9226 174.05C86.2026 174.21 86.5126 174.29 86.8526 174.29C87.1926 174.29 87.5026 174.21 87.7826 174.05C88.0692 173.883 88.2959 173.647 88.4626 173.34C88.6292 173.027 88.7126 172.663 88.7126 172.25ZM92.0804 170.41C92.2404 170.097 92.4671 169.853 92.7604 169.68C93.0604 169.507 93.4237 169.42 93.8504 169.42V170.36H93.6104C92.5904 170.36 92.0804 170.913 92.0804 172.02V175H91.1704V169.52H92.0804V170.41ZM99.7369 168.03C100.497 168.03 101.154 168.173 101.707 168.46C102.267 168.74 102.694 169.143 102.987 169.67C103.287 170.197 103.437 170.817 103.437 171.53C103.437 172.243 103.287 172.863 102.987 173.39C102.694 173.91 102.267 174.31 101.707 174.59C101.154 174.863 100.497 175 99.7369 175H97.5669V168.03H99.7369ZM99.7369 174.25C100.637 174.25 101.324 174.013 101.797 173.54C102.27 173.06 102.507 172.39 102.507 171.53C102.507 170.663 102.267 169.987 101.787 169.5C101.314 169.013 100.63 168.77 99.7369 168.77H98.4769V174.25H99.7369ZM109.637 172.05C109.637 172.223 109.627 172.407 109.607 172.6H105.227C105.261 173.14 105.444 173.563 105.777 173.87C106.117 174.17 106.527 174.32 107.007 174.32C107.401 174.32 107.727 174.23 107.987 174.05C108.254 173.863 108.441 173.617 108.547 173.31H109.527C109.381 173.837 109.087 174.267 108.647 174.6C108.207 174.927 107.661 175.09 107.007 175.09C106.487 175.09 106.021 174.973 105.607 174.74C105.201 174.507 104.881 174.177 104.647 173.75C104.414 173.317 104.297 172.817 104.297 172.25C104.297 171.683 104.411 171.187 104.637 170.76C104.864 170.333 105.181 170.007 105.587 169.78C106.001 169.547 106.474 169.43 107.007 169.43C107.527 169.43 107.987 169.543 108.387 169.77C108.787 169.997 109.094 170.31 109.307 170.71C109.527 171.103 109.637 171.55 109.637 172.05ZM108.697 171.86C108.697 171.513 108.621 171.217 108.467 170.97C108.314 170.717 108.104 170.527 107.837 170.4C107.577 170.267 107.287 170.2 106.967 170.2C106.507 170.2 106.114 170.347 105.787 170.64C105.467 170.933 105.284 171.34 105.237 171.86H108.697ZM111.748 167.6V175H110.838V167.6H111.748ZM116.019 169.42C116.433 169.42 116.806 169.51 117.139 169.69C117.473 169.863 117.733 170.127 117.919 170.48C118.113 170.833 118.209 171.263 118.209 171.77V175H117.309V171.9C117.309 171.353 117.173 170.937 116.899 170.65C116.626 170.357 116.253 170.21 115.779 170.21C115.299 170.21 114.916 170.36 114.629 170.66C114.349 170.96 114.209 171.397 114.209 171.97V175H113.299V167.6H114.209V170.3C114.389 170.02 114.636 169.803 114.949 169.65C115.269 169.497 115.626 169.42 116.019 169.42ZM120.166 168.63C119.992 168.63 119.846 168.57 119.726 168.45C119.606 168.33 119.546 168.183 119.546 168.01C119.546 167.837 119.606 167.69 119.726 167.57C119.846 167.45 119.992 167.39 120.166 167.39C120.332 167.39 120.472 167.45 120.586 167.57C120.706 167.69 120.766 167.837 120.766 168.01C120.766 168.183 120.706 168.33 120.586 168.45C120.472 168.57 120.332 168.63 120.166 168.63ZM120.606 169.52V175H119.696V169.52H120.606ZM128.623 170.95V171.72H124.633V170.95H128.623ZM132.607 168.6V167.77H134.487V175H133.567V168.6H132.607ZM135.81 168.6V167.77H137.69V175H136.77V168.6H135.81ZM139.253 171.31C139.253 170.163 139.439 169.27 139.813 168.63C140.186 167.983 140.839 167.66 141.773 167.66C142.699 167.66 143.349 167.983 143.723 168.63C144.096 169.27 144.283 170.163 144.283 171.31C144.283 172.477 144.096 173.383 143.723 174.03C143.349 174.677 142.699 175 141.773 175C140.839 175 140.186 174.677 139.813 174.03C139.439 173.383 139.253 172.477 139.253 171.31ZM143.383 171.31C143.383 170.73 143.343 170.24 143.263 169.84C143.189 169.433 143.033 169.107 142.793 168.86C142.559 168.613 142.219 168.49 141.773 168.49C141.319 168.49 140.973 168.613 140.733 168.86C140.499 169.107 140.343 169.433 140.263 169.84C140.189 170.24 140.153 170.73 140.153 171.31C140.153 171.91 140.189 172.413 140.263 172.82C140.343 173.227 140.499 173.553 140.733 173.8C140.973 174.047 141.319 174.17 141.773 174.17C142.219 174.17 142.559 174.047 142.793 173.8C143.033 173.553 143.189 173.227 143.263 172.82C143.343 172.413 143.383 171.91 143.383 171.31ZM145.532 171.31C145.532 170.163 145.719 169.27 146.092 168.63C146.465 167.983 147.119 167.66 148.052 167.66C148.979 167.66 149.629 167.983 150.002 168.63C150.375 169.27 150.562 170.163 150.562 171.31C150.562 172.477 150.375 173.383 150.002 174.03C149.629 174.677 148.979 175 148.052 175C147.119 175 146.465 174.677 146.092 174.03C145.719 173.383 145.532 172.477 145.532 171.31ZM149.662 171.31C149.662 170.73 149.622 170.24 149.542 169.84C149.469 169.433 149.312 169.107 149.072 168.86C148.839 168.613 148.499 168.49 148.052 168.49C147.599 168.49 147.252 168.613 147.012 168.86C146.779 169.107 146.622 169.433 146.542 169.84C146.469 170.24 146.432 170.73 146.432 171.31C146.432 171.91 146.469 172.413 146.542 172.82C146.622 173.227 146.779 173.553 147.012 173.8C147.252 174.047 147.599 174.17 148.052 174.17C148.499 174.17 148.839 174.047 149.072 173.8C149.312 173.553 149.469 173.227 149.542 172.82C149.622 172.413 149.662 171.91 149.662 171.31ZM151.811 171.31C151.811 170.163 151.998 169.27 152.371 168.63C152.745 167.983 153.398 167.66 154.331 167.66C155.258 167.66 155.908 167.983 156.281 168.63C156.655 169.27 156.841 170.163 156.841 171.31C156.841 172.477 156.655 173.383 156.281 174.03C155.908 174.677 155.258 175 154.331 175C153.398 175 152.745 174.677 152.371 174.03C151.998 173.383 151.811 172.477 151.811 171.31ZM155.941 171.31C155.941 170.73 155.901 170.24 155.821 169.84C155.748 169.433 155.591 169.107 155.351 168.86C155.118 168.613 154.778 168.49 154.331 168.49C153.878 168.49 153.531 168.613 153.291 168.86C153.058 169.107 152.901 169.433 152.821 169.84C152.748 170.24 152.711 170.73 152.711 171.31C152.711 171.91 152.748 172.413 152.821 172.82C152.901 173.227 153.058 173.553 153.291 173.8C153.531 174.047 153.878 174.17 154.331 174.17C154.778 174.17 155.118 174.047 155.351 173.8C155.591 173.553 155.748 173.227 155.821 172.82C155.901 172.413 155.941 171.91 155.941 171.31ZM162.541 168.48L159.761 175H158.841L161.661 168.57H157.801V167.79H162.541V168.48Z" fill="white"/>
<path d="M50.2 131.768C51.384 131.768 52.4187 132.003 53.304 132.472C54.1893 132.941 54.872 133.603 55.352 134.456C55.8427 135.299 56.088 136.275 56.088 137.384C56.088 138.483 55.8427 139.459 55.352 140.312C54.872 141.165 54.184 141.827 53.288 142.296C52.4027 142.765 51.3733 143 50.2 143H45.992V131.768H50.2ZM50.024 140.632C51.0587 140.632 51.864 140.349 52.44 139.784C53.016 139.219 53.304 138.419 53.304 137.384C53.304 136.349 53.016 135.544 52.44 134.968C51.864 134.392 51.0587 134.104 50.024 134.104H48.728V140.632H50.024ZM66.033 138.392C66.033 138.648 66.017 138.915 65.985 139.192H59.793C59.8357 139.747 60.0117 140.173 60.321 140.472C60.641 140.76 61.0303 140.904 61.489 140.904C62.1717 140.904 62.6463 140.616 62.913 140.04H65.825C65.6757 140.627 65.4037 141.155 65.009 141.624C64.625 142.093 64.1397 142.461 63.553 142.728C62.9663 142.995 62.3103 143.128 61.585 143.128C60.7103 143.128 59.9317 142.941 59.249 142.568C58.5663 142.195 58.033 141.661 57.649 140.968C57.265 140.275 57.073 139.464 57.073 138.536C57.073 137.608 57.2597 136.797 57.633 136.104C58.017 135.411 58.5503 134.877 59.233 134.504C59.9157 134.131 60.6997 133.944 61.585 133.944C62.449 133.944 63.217 134.125 63.889 134.488C64.561 134.851 65.0837 135.368 65.457 136.04C65.841 136.712 66.033 137.496 66.033 138.392ZM63.233 137.672C63.233 137.203 63.073 136.829 62.753 136.552C62.433 136.275 62.033 136.136 61.553 136.136C61.0943 136.136 60.705 136.269 60.385 136.536C60.0757 136.803 59.8837 137.181 59.809 137.672H63.233ZM72.9164 133.976C73.9617 133.976 74.7937 134.317 75.4124 135C76.0417 135.672 76.3564 136.6 76.3564 137.784V143H73.6364V138.152C73.6364 137.555 73.4817 137.091 73.1724 136.76C72.863 136.429 72.447 136.264 71.9244 136.264C71.4017 136.264 70.9857 136.429 70.6764 136.76C70.367 137.091 70.2124 137.555 70.2124 138.152V143H67.4764V134.072H70.2124V135.256C70.4897 134.861 70.863 134.552 71.3324 134.328C71.8017 134.093 72.3297 133.976 72.9164 133.976ZM83.2336 140.68V143H81.8416C80.8496 143 80.0763 142.76 79.5216 142.28C78.967 141.789 78.6896 140.995 78.6896 139.896V136.344H77.6016V134.072H78.6896V131.896H81.4256V134.072H83.2176V136.344H81.4256V139.928C81.4256 140.195 81.4896 140.387 81.6176 140.504C81.7456 140.621 81.959 140.68 82.2576 140.68H83.2336ZM84.2136 138.52C84.2136 137.603 84.3843 136.797 84.7256 136.104C85.0776 135.411 85.5523 134.877 86.1496 134.504C86.747 134.131 87.4136 133.944 88.1496 133.944C88.779 133.944 89.3283 134.072 89.7976 134.328C90.2776 134.584 90.6456 134.92 90.9016 135.336V134.072H93.6376V143H90.9016V141.736C90.635 142.152 90.2616 142.488 89.7816 142.744C89.3123 143 88.763 143.128 88.1336 143.128C87.4083 143.128 86.747 142.941 86.1496 142.568C85.5523 142.184 85.0776 141.645 84.7256 140.952C84.3843 140.248 84.2136 139.437 84.2136 138.52ZM90.9016 138.536C90.9016 137.853 90.7096 137.315 90.3256 136.92C89.9523 136.525 89.4936 136.328 88.9496 136.328C88.4056 136.328 87.9416 136.525 87.5576 136.92C87.1843 137.304 86.9976 137.837 86.9976 138.52C86.9976 139.203 87.1843 139.747 87.5576 140.152C87.9416 140.547 88.4056 140.744 88.9496 140.744C89.4936 140.744 89.9523 140.547 90.3256 140.152C90.7096 139.757 90.9016 139.219 90.9016 138.536ZM98.353 131.16V143H95.617V131.16H98.353ZM103.262 137.368C103.262 136.259 103.502 135.272 103.982 134.408C104.462 133.533 105.129 132.856 105.982 132.376C106.846 131.885 107.822 131.64 108.91 131.64C110.244 131.64 111.385 131.992 112.334 132.696C113.284 133.4 113.918 134.36 114.238 135.576H111.23C111.006 135.107 110.686 134.749 110.27 134.504C109.865 134.259 109.401 134.136 108.878 134.136C108.036 134.136 107.353 134.429 106.83 135.016C106.308 135.603 106.046 136.387 106.046 137.368C106.046 138.349 106.308 139.133 106.83 139.72C107.353 140.307 108.036 140.6 108.878 140.6C109.401 140.6 109.865 140.477 110.27 140.232C110.686 139.987 111.006 139.629 111.23 139.16H114.238C113.918 140.376 113.284 141.336 112.334 142.04C111.385 142.733 110.244 143.08 108.91 143.08C107.822 143.08 106.846 142.84 105.982 142.36C105.129 141.869 104.462 141.192 103.982 140.328C103.502 139.464 103.262 138.477 103.262 137.368ZM118.65 131.16V143H115.914V131.16H118.65ZM122.009 133.144C121.529 133.144 121.134 133.005 120.825 132.728C120.526 132.44 120.377 132.088 120.377 131.672C120.377 131.245 120.526 130.893 120.825 130.616C121.134 130.328 121.529 130.184 122.009 130.184C122.478 130.184 122.862 130.328 123.161 130.616C123.47 130.893 123.625 131.245 123.625 131.672C123.625 132.088 123.47 132.44 123.161 132.728C122.862 133.005 122.478 133.144 122.009 133.144ZM123.369 134.072V143H120.633V134.072H123.369ZM130.791 133.976C131.837 133.976 132.669 134.317 133.287 135C133.917 135.672 134.231 136.6 134.231 137.784V143H131.511V138.152C131.511 137.555 131.357 137.091 131.047 136.76C130.738 136.429 130.322 136.264 129.799 136.264C129.277 136.264 128.861 136.429 128.551 136.76C128.242 137.091 128.087 137.555 128.087 138.152V143H125.351V134.072H128.087V135.256C128.365 134.861 128.738 134.552 129.207 134.328C129.677 134.093 130.205 133.976 130.791 133.976ZM137.509 133.144C137.029 133.144 136.634 133.005 136.325 132.728C136.026 132.44 135.877 132.088 135.877 131.672C135.877 131.245 136.026 130.893 136.325 130.616C136.634 130.328 137.029 130.184 137.509 130.184C137.978 130.184 138.362 130.328 138.661 130.616C138.97 130.893 139.125 131.245 139.125 131.672C139.125 132.088 138.97 132.44 138.661 132.728C138.362 133.005 137.978 133.144 137.509 133.144ZM138.869 134.072V143H136.133V134.072H138.869ZM140.307 138.536C140.307 137.608 140.494 136.797 140.867 136.104C141.251 135.411 141.779 134.877 142.451 134.504C143.134 134.131 143.913 133.944 144.787 133.944C145.907 133.944 146.841 134.237 147.587 134.824C148.345 135.411 148.841 136.237 149.075 137.304H146.163C145.918 136.621 145.443 136.28 144.739 136.28C144.238 136.28 143.838 136.477 143.539 136.872C143.241 137.256 143.091 137.811 143.091 138.536C143.091 139.261 143.241 139.821 143.539 140.216C143.838 140.6 144.238 140.792 144.739 140.792C145.443 140.792 145.918 140.451 146.163 139.768H149.075C148.841 140.813 148.345 141.635 147.587 142.232C146.83 142.829 145.897 143.128 144.787 143.128C143.913 143.128 143.134 142.941 142.451 142.568C141.779 142.195 141.251 141.661 140.867 140.968C140.494 140.275 140.307 139.464 140.307 138.536Z" fill="url(#paint2_linear_25_97)"/>
</g>
<defs>
<filter id="filter0_b_25_97" x="15" y="99" width="235" height="107" filterUnits="userSpaceOnUse" color-interpolation-filters="sRGB">
<feFlood flood-opacity="0" result="BackgroundImageFix"/>
<feGaussianBlur in="BackgroundImageFix" stdDeviation="5"/>
<feComposite in2="SourceAlpha" operator="in" result="effect1_backgroundBlur_25_97"/>
<feBlend mode="normal" in="SourceGraphic" in2="effect1_backgroundBlur_25_97" result="shape"/>
</filter>
<radialGradient id="paint0_radial_25_97" cx="0" cy="0" r="1" gradientUnits="userSpaceOnUse" gradientTransform="translate(558.384 -118.421) scale(618.91 610.684)">
<stop/>
<stop offset="0.1656" stop-color="#414141"/>
<stop offset="0.331" stop-color="#7B7B7B"/>
<stop offset="0.4899" stop-color="#AAAAAA"/>
<stop offset="0.64" stop-color="#CFCFCF"/>
<stop offset="0.7791" stop-color="#E9E9E9"/>
<stop offset="0.9032" stop-color="#F9F9F9"/>
<stop offset="1" stop-color="white"/>
</radialGradient>
<linearGradient id="paint1_linear_25_97" x1="429.976" y1="1.32838e-06" x2="221.251" y2="169.139" gradientUnits="userSpaceOnUse">
<stop stop-color="#89E8CD" stop-opacity="0"/>
<stop offset="0.244751" stop-color="#89E8CD" stop-opacity="0.06"/>
<stop offset="0.467181" stop-color="#89E8CD" stop-opacity="0.18"/>
<stop offset="1" stop-color="#89E8CD"/>
</linearGradient>
<linearGradient id="paint2_linear_25_97" x1="175.755" y1="157.842" x2="27.7104" y2="124.214" gradientUnits="userSpaceOnUse">
<stop stop-color="#ADA2FF"/>
<stop offset="1" stop-color="#59DFAD"/>
</linearGradient>
<clipPath id="clip0_25_97">
<rect width="430" height="233" fill="white"/>
</clipPath>
</defs>
</svg>
