<svg width="29" height="30" viewBox="0 0 29 30" fill="none" xmlns="http://www.w3.org/2000/svg">
<g filter="url(#filter0_d_25_17)">
<path d="M13.5512 19.1858C18.32 19.1858 22.1858 15.32 22.1858 10.5512C22.1858 5.78249 18.32 1.91666 13.5512 1.91666C8.78246 1.91666 4.91663 5.78249 4.91663 10.5512C4.91663 15.32 8.78246 19.1858 13.5512 19.1858Z" fill="#1E1A34"/>
<path d="M24.0737 18.1604C23.7575 17.5758 23.0866 17.25 22.1858 17.25C21.5054 17.25 20.9208 17.5279 20.5758 18.0071C20.2308 18.4863 20.1541 19.1283 20.365 19.7704C20.7771 21.0163 21.4958 21.2942 21.8887 21.3421C21.9462 21.3517 22.0037 21.3517 22.0708 21.3517C22.4925 21.3517 23.1441 21.1696 23.7766 20.2208C24.2846 19.4829 24.3804 18.745 24.0737 18.1604Z" fill="#1E1A34"/>
</g>
<defs>
<filter id="filter0_d_25_17" x="-1" y="0" width="31" height="31" filterUnits="userSpaceOnUse" color-interpolation-filters="sRGB">
<feFlood flood-opacity="0" result="BackgroundImageFix"/>
<feColorMatrix in="SourceAlpha" type="matrix" values="0 0 0 0 0 0 0 0 0 0 0 0 0 0 0 0 0 0 127 0" result="hardAlpha"/>
<feOffset dy="4"/>
<feGaussianBlur stdDeviation="2"/>
<feComposite in2="hardAlpha" operator="out"/>
<feColorMatrix type="matrix" values="0 0 0 0 0 0 0 0 0 0 0 0 0 0 0 0 0 0 0.25 0"/>
<feBlend mode="normal" in2="BackgroundImageFix" result="effect1_dropShadow_25_17"/>
<feBlend mode="normal" in="SourceGraphic" in2="effect1_dropShadow_25_17" result="shape"/>
</filter>
</defs>
</svg>
